# xmcd
#
# Track frame offsets:
#	150
#	16555
#	36269
#	52006
#	71420
#	89002
#	105732
#	122080
#	139020
#	157055
#	175184
#	192527
#
# Disc length: 2812
#
# Revision: 1
# Processed by: cddbd v1.5.1PL0 Copyright (c) Steve Scherf et al.
# Submitted via: dBpowerAMP V4.0
# Normalized: r0:TRMNUM
#
DISCID=a60afa0c
DTITLE=Aqua - Aquarius
DYEAR=2001
DGENRE=Acapella
TTITLE0=Cartoon Heroes
TTITLE1=Around The World
TTITLE2=Freaky Friday
TTITLE3=We Belong To The Sea
TTITLE4=An Apple A Day
TTITLE5=Halloween
TTITLE6=Good Guys
TTITLE7=Back From Mars
TTITLE8=Aquarius
TTITLE9=Cuba Libre
TTITLE10=Bumble Bees
TTITLE11=Goodbye To The Circus
EXTD=
EXTT0=
EXTT1=
EXTT2=
EXTT3=
EXTT4=
EXTT5=
EXTT6=
EXTT7=
EXTT8=
EXTT9=
EXTT10=
EXTT11=
PLAYORDER=
